HIERARCHY
ROOT Hips
{
	OFFSET 0.000000 100.000000 0.000000
	CHANNELS 6 Xposition Yposition Zposition Zrotation Xrotation Yrotation
	JOINT LeftThigh
	{
		OFFSET 8.910000 -6.270020 0.000000
		CHANNELS 3 Zrotation Xrotation Yrotation
		JOINT LeftLeg
		{
			OFFSET 0.000000 -44.851646 1.566256
			CHANNELS 3 Zrotation Xrotation Yrotation
			JOINT LeftFoot
			{
				OFFSET 0.000000 -40.601860 -2.839159
				CHANNELS 3 Zrotation Xrotation Yrotation
				JOINT LeftToe
				{
					OFFSET 0.000000 -7.150443 12.486629
					CHANNELS 3 Zrotation Xrotation Yrotation
					End Site
					{
						OFFSET 0.000000 0.734473 -10.503446
					}
				}
				JOINT LeftHeel
				{
					OFFSET 0.000000 -6.428929 -1.773781
					CHANNELS 3 Zrotation Xrotation Yrotation
					End Site
					{
						OFFSET 0.000000 0.734473 -10.503445
					}
				}
			}
		}
	}
	JOINT RightThigh
	{
		OFFSET -8.910000 -6.270020 0.000000
		CHANNELS 3 Zrotation Xrotation Yrotation
		JOINT RightLeg
		{
			OFFSET 0.000000 -44.851646 1.566256
			CHANNELS 3 Zrotation Xrotation Yrotation
			JOINT RightFoot
			{
				OFFSET 0.000000 -40.601860 -2.839159
				CHANNELS 3 Zrotation Xrotation Yrotation
				JOINT RightToe
				{
					OFFSET 0.000000 -7.150443 12.486629
					CHANNELS 3 Zrotation Xrotation Yrotation
					End Site
					{
						OFFSET 0.000000 0.734473 -10.503446
					}
				}
				JOINT RightHeel
				{
					OFFSET 0.000000 -6.428929 -1.773781
					CHANNELS 3 Zrotation Xrotation Yrotation
					End Site
					{
						OFFSET 0.000000 0.734473 -10.503445
					}
				}
			}
		}
	}
	JOINT SpineLow
	{
		OFFSET 0.000000 7.000008 -0.000003
		CHANNELS 3 Zrotation Xrotation Yrotation
		JOINT SpineMid
		{
			OFFSET 0.000000 12.636139 -0.883547
			CHANNELS 3 Zrotation Xrotation Yrotation
			JOINT Chest
			{
				OFFSET 0.000000 12.597603 -1.324117
				CHANNELS 3 Zrotation Xrotation Yrotation
				JOINT LeftShoulder
				{
					OFFSET 8.000000 10.000000 -1.500001
					CHANNELS 3 Zrotation Xrotation Yrotation
					JOINT LeftArm
					{
						OFFSET 9.699991 4.500000 0.000001
						CHANNELS 3 Zrotation Xrotation Yrotation
						JOINT LeftForearm
						{
							OFFSET 27.268583 0.000000 -1.429089
							CHANNELS 3 Zrotation Xrotation Yrotation
							JOINT LeftHand
							{
								OFFSET 26.595398 -0.000031 2.326793
								CHANNELS 3 Zrotation Xrotation Yrotation
								JOINT LeftFinger
								{
									OFFSET 8.817566 -0.930298 0.771437
									CHANNELS 3 Zrotation Xrotation Yrotation
									End Site
									{
										OFFSET 0.926765 8.851242 0.081081
									}
								}
							}
						}
					}
				}
				JOINT RightShoulder
				{
					OFFSET -8.000000 10.000000 -1.500001
					CHANNELS 3 Zrotation Xrotation Yrotation
					JOINT RightArm
					{
						OFFSET -9.699991 4.500000 0.000001
						CHANNELS 3 Zrotation Xrotation Yrotation
						JOINT RightForearm
						{
							OFFSET -27.268583 0.000000 -1.429089
							CHANNELS 3 Zrotation Xrotation Yrotation
							JOINT RightHand
							{
								OFFSET -26.595398 -0.000031 2.326793
								CHANNELS 3 Zrotation Xrotation Yrotation
								JOINT RightFinger
								{
									OFFSET -8.817566 -0.930298 0.771437
									CHANNELS 3 Zrotation Xrotation Yrotation
									End Site
									{
										OFFSET -0.926765 8.851242 0.081081
									}
								}
							}
						}
					}
				}
				JOINT Neck
				{
					OFFSET 0.000000 16.000015 -0.000014
					CHANNELS 3 Zrotation Xrotation Yrotation
					JOINT Head
					{
						OFFSET 0.000000 11.883194 1.670089
						CHANNELS 3 Zrotation Xrotation Yrotation
						JOINT HeadTop
						{
							OFFSET 0.000000 15.000000 0.000000
							CHANNELS 3 Zrotation Xrotation Yrotation
							End Site
							{
								OFFSET 0.000000 0.000000 -15.000004
							}
						}
					}
				}
			}
		}
	}
}
MOTION
Frames: 4
Frame Time: 0.041667
-44.967705 97.175240 9.699404 8.705013 -9.595187 -156.460373 6.237812 -15.527334 12.590439 5.003957 12.638305 8.598295 -8.887884 -8.140280 -6.159542 -0.000000 0.000000 -0.000000 -0.000000 0.000000 -0.000000 -12.295632 -17.797308 -22.804093 -4.084228 17.777316 -19.410096 0.140056 9.184107 -3.390010 -0.000000 -0.000001 0.000001 -0.000000 -0.000001 0.000001 1.327756 2.214323 0.288526 2.386878 -1.222751 0.719436 2.475127 -9.220368 0.812065 -4.557976 12.289813 -4.701300 -46.703474 28.207395 -15.384513 -6.518374 -1.344868 -19.587111 -7.527683 -6.596340 -3.501296 0.000001 -0.000000 0.000000 14.394810 10.139156 -1.739623 48.148855 22.737667 11.163145 -4.019195 6.066826 18.547797 6.140711 -12.548338 18.389808 -0.000001 -0.000001 -0.000004 2.912302 -2.480954 -15.410681 3.720691 12.037864 -12.064821 0.000000 -0.000000 0.000000 
-46.913857 97.373619 10.166288 9.450251 -9.717352 -154.928061 5.196015 -15.629126 12.871804 5.125838 11.636352 7.788422 -7.857475 -8.059683 -7.231450 -0.000000 0.000000 -0.000000 -0.000000 0.000000 -0.000000 -12.632552 -21.154569 -21.720790 -3.609886 24.052923 -15.456592 1.737430 4.063141 -1.692484 -0.000000 0.000001 -0.000000 -0.000000 0.000001 -0.000000 1.206751 2.262870 0.472276 2.160345 -1.133331 1.032907 2.280492 -9.130716 1.120944 -4.084739 12.157615 -4.945583 -46.204269 26.752789 -15.858623 -7.278814 -2.474450 -19.844770 -7.032915 -6.705464 -2.419662 -0.000000 0.000000 -0.000001 14.862683 10.146349 -2.205255 48.407788 24.084377 11.397838 -4.838204 5.626531 21.142992 7.144961 -12.501090 19.460150 -0.000002 0.000000 -0.000004 3.342233 -3.057859 -11.363432 3.667703 11.666466 -9.008710 0.000000 -0.000001 -0.000000 
-48.623337 97.605057 10.466675 10.537346 -9.671660 -153.523760 4.645341 -15.508226 14.141527 5.543514 10.240693 6.149265 -6.873884 -7.873198 -8.298043 0.000000 0.000000 0.000003 0.000000 0.000000 0.000003 -11.086158 -24.717133 -21.061455 -3.029460 28.683509 -9.494603 3.055358 1.079308 -1.418003 -0.000001 0.000001 0.000000 -0.000001 0.000001 0.000000 1.155483 2.315812 0.566860 2.063248 -1.036802 1.195553 2.199967 -9.033967 1.281767 -3.560726 12.359186 -5.186053 -46.082388 25.545234 -16.353107 -8.106944 -4.933704 -20.114774 -6.273213 -6.820627 -1.164660 -0.000000 -0.000000 -0.000001 15.527412 10.482395 -2.663904 48.451467 25.456617 11.980708 -6.301260 6.606522 24.291204 7.309259 -11.627358 21.592607 0.000000 0.000001 -0.000003 3.747411 -3.489019 -8.084845 3.660028 11.373196 -6.542560 0.000000 -0.000001 0.000000 
-50.200016 97.817764 10.454514 11.813994 -9.831426 -152.168132 4.367606 -15.354639 15.781734 5.812021 8.515313 3.917782 -6.022760 -7.764738 -8.914120 -0.000000 0.000000 -0.000001 -0.000000 0.000000 -0.000001 -8.579820 -28.483613 -19.724492 -1.893253 31.271727 -7.888487 3.933407 -0.930673 0.187432 -0.000000 0.000001 -0.000000 -0.000000 0.000001 -0.000000 1.122666 2.300038 0.546223 2.005016 -1.066013 1.153620 2.137056 -9.063349 1.237382 -2.904675 12.685746 -5.713384 -46.036643 25.201315 -16.938316 -9.000873 -8.588983 -20.565300 -5.880806 -6.635760 -0.077582 -0.000001 -0.000000 -0.000000 16.094678 10.563801 -3.135095 48.451200 26.359863 12.662990 -7.856777 8.623005 27.527892 6.451610 -10.665846 23.523747 0.000001 0.000001 -0.000001 3.980469 -3.707153 -5.303942 3.563990 11.220333 -4.442624 -0.000000 -0.000001 -0.000000 
